<svg width="48" height="48" viewBox="0 0 48 48" fill="none" xmlns="http://www.w3.org/2000/svg">
<path d="M10.5 21.875C12.358 21.875 14.004 20.949 15 19.534C15.996 20.949 17.642 21.875 19.5 21.875C21.358 21.875 23.004 20.949 24 19.534C24.996 20.949 26.642 21.875 28.5 21.875C30.358 21.875 32.004 20.949 33 19.534C33.996 20.949 35.642 21.875 37.5 21.875C40.532 21.875 43 19.407 43 16.375V10.5C43 10.334 42.98 10.173 42.959 10.012V10.009C42.981 9.842 43 9.673 43 9.5C43 7.019 40.981 5 38.5 5H10.5C10.195 5 9.89 5.031 9.639 5.084C6.951 5.514 5 7.792 5 10.5V16.375C5 19.407 7.467 21.875 10.5 21.875ZM7 10.5C7 8.808 8.271 7.328 9.999 7.051C10.162 7.017 10.331 7 10.5 7H38.5C39.879 7 41 8.121 41 9.5C41 9.61 40.98 9.716 40.96 9.853L40.941 9.982L40.977 10.284C40.987 10.354 41 10.426 41 10.5V16.375C41 18.305 39.43 19.875 37.5 19.875C35.57 19.875 34 18.305 34 16.375V13H32V16.375C32 18.305 30.43 19.875 28.5 19.875C26.57 19.875 25 18.305 25 16.375V13H23V16.375C23 18.305 21.43 19.875 19.5 19.875C17.57 19.875 16 18.305 16 16.375V13H14V16.375C14 18.305 12.43 19.875 10.5 19.875C8.57 19.875 7 18.305 7 16.375V10.5Z" fill="black"/>
<path d="M41 35V33V27H39V33H21V27H19V33V35V41H9V27H7V43H41V35ZM21 41V35H39V41H21Z" fill="black"/>
</svg>
